<svg aria-hidden="true" focusable="false" xmlns="http://www.w3.org/2000/svg" viewBox="0 0 24 24" width="24" height="24"><g id="a" focusable="false"><circle cx="12" cy="12" r="3" style="fill:none; stroke:currentColor; stroke-linecap:round; stroke-linejoin:round; stroke-width:2px;"/><path d="m19.4,15c-.3.6-.1,1.3.3,1.8l.1.1c.8.8.8,2,0,2.8h0c-.8.8-2,.8-2.8,0h0l-.1-.1c-.5-.5-1.2-.6-1.8-.3-.6.3-1,.9-1,1.5v.2c0,1.1-.9,2-2,2s-2-.9-2-2v-.1c0-.7-.4-1.3-1.1-1.5-.6-.3-1.3-.1-1.8.3l-.1.1c-.8.8-2,.8-2.8,0h0c-.8-.8-.8-2,0-2.8h0l.1-.1c.5-.5.6-1.2.3-1.8-.3-.6-.9-1-1.5-1h-.2c-1.1,0-2-.9-2-2s.9-2,2-2h.1c.7,0,1.3-.4,1.5-1.1.3-.6.1-1.3-.3-1.8l-.1-.1c-.8-.8-.8-2,0-2.8h0c.8-.8,2-.8,2.8,0h0l.1.1c.5.4,1.2.6,1.8.3h.1c.6-.3,1-.9,1-1.5v-.2c0-1.1.9-2,2-2s2,.9,2,2v.1c0,.7.4,1.3,1,1.5.6.3,1.3.1,1.8-.3l.1-.1c.8-.8,2-.8,2.8,0h0c.8.8.8,2,0,2.8h0l-.1.1c-.5.5-.6,1.2-.3,1.8v.1c.3.6.9,1,1.5,1h.2c1.1,0,2,.9,2,2s-.9,2-2,2h-.1c-.6,0-1.2.4-1.5,1Z" style="fill:none; stroke:currentColor; stroke-linecap:round; stroke-linejoin:round; stroke-width:2px;"/></g></svg>